# xmcd
#
# Track frame offsets: 
#        183
#        10100
#        20773
#        30453
#        41723
#        54380
#        64953
#        81638
#        91473
#        107090
#        121145
#        134303
#        148405
#        161013
#        172943
#        185313
#        218875
#        230420
#
# Disc length: 3204 seconds
#
# Revision: 9
# Processed by: cddbd v1.5.2PL0 Copyright (c) Steve Scherf et al.
# Submitted via: ExactAudioCopyFreeDBPlugin 1.0
#
DISCID=fc0c8212
DTITLE=Buddy Guy - Stone Crazy
DYEAR=1994
DGENRE=Blues
TTITLE0=First Time I Met The Blues
TTITLE1=I Got My Eyes On You
TTITLE2=Slop Around
TTITLE3=Watch Yourself
TTITLE4=When My Left Eye Jumps
TTITLE5=Hard But It's Fair
TTITLE6=Every Girl I See
TTITLE7=Baby (Baby, Baby, Baby)
TTITLE8=Leave My Girl Alone
TTITLE9=Hully Gully
TTITLE10=Let Me Love You Baby
TTITLE11=I Got A Strange Feeling
TTITLE12=I Suffer With The Blues
TTITLE13=Ten Years Ago
TTITLE14=Mother-In-Law Blues
TTITLE15=Stone Crazy
TTITLE16=No Lie
TTITLE17=$100 Bill
EXTD=YEAR: 1994
EXTT0=
EXTT1=
EXTT2=
EXTT3=
EXTT4=
EXTT5=
EXTT6=
EXTT7=
EXTT8=
EXTT9=
EXTT10=
EXTT11=
EXTT12=
EXTT13=
EXTT14=
EXTT15=
EXTT16=
EXTT17=
PLAYORDER=
